<svg width="25" height="24" viewBox="0 0 25 24" fill="none" xmlns="http://www.w3.org/2000/svg">
<g clip-path="url(#clip0_4322_96345)">
<path d="M24.0769 0H0.0769043V24H24.0769V0Z" fill="white"/>
<path d="M0.0769043 0V24H24.0769V20.208H20.7649L19.5409 18.7762L18.2689 20.208H8.8609V12.5842H5.75674L9.63706 3.80016H13.4127L14.3247 5.79216V3.80016H19.0129L19.7967 5.88816L20.5647 3.80016H24.0769V0H0.0769043ZM21.3649 5.04L20.1327 8.28816L19.8049 9.16848L18.2291 5.04H15.5171V11.4403H17.1491V7.27248L17.1409 6.432L17.4611 7.27248L19.0211 11.4403H20.5729L22.1411 7.27248L22.4449 6.44016V11.4403H24.0769V5.04H21.3649ZM10.5169 5.04L7.6849 11.4403H9.54058L10.0369 10.2082H13.1411L13.6369 11.4403H15.5171L12.7009 5.04H10.5169ZM11.2686 7.20816L11.5887 6.40848L11.9089 7.20816L12.5727 8.82384H10.6047L11.2686 7.20816ZM21.4931 12.5923L19.5649 14.664L17.6449 12.5923H15.5171H10.1727V18.9682H15.5171V17.5843H11.8047V16.4722H15.4451V15.0965H11.8047V13.9762H15.5171V12.5923L18.5007 15.792L15.5171 18.9682H17.5811L19.5251 16.8883L21.4609 18.9682H23.5806L20.5887 15.768L23.5806 12.5923H21.4931ZM22.2687 15.7603L24.0769 17.6002V13.944L22.2687 15.7603Z" fill="#006FCF"/>
</g>
<defs>
<clipPath id="clip0_4322_96345">
<rect width="24" height="24" fill="white" transform="translate(0.0769043)"/>
</clipPath>
</defs>
</svg>
