<?xml version="1.0" encoding="iso-8859-1"?>
<!-- Uploaded to: SVG Repo, www.svgrepo.com, Generator: SVG Repo Mixer Tools -->
<svg fill="#000000" height="800px" width="800px" version="1.1" id="Layer_1" xmlns="http://www.w3.org/2000/svg" xmlns:xlink="http://www.w3.org/1999/xlink" 
	 viewBox="0 0 485 485" xml:space="preserve">
<path d="M0,69.889v345.222h485V69.889H0z M455,99.889v93.263h-35.468c1.89-5.039,2.931-10.49,2.931-16.182
	c0-25.482-20.731-46.213-46.214-46.213c-11.529,0-22.607,4.303-31.194,12.116L297.5,187.567l-47.378-44.529l-0.177-0.164
	c-8.587-7.813-19.665-12.116-31.194-12.116c-25.482,0-46.214,20.731-46.214,46.213c0,5.691,1.041,11.142,2.931,16.182H30V99.889H455
	z M375.773,193.152l-7.955-0.148l-0.101,0.148h-32.356l29.959-28.157c3.039-2.733,6.917-4.237,10.929-4.237
	c8.94,0,16.214,7.273,16.214,16.213c0,8.692-6.878,15.793-15.477,16.182H375.773z M227.182,193.004l-7.955,0.148h-1.212
	c-8.597-0.388-15.478-7.49-15.478-16.182c0-8.94,7.273-16.213,16.214-16.213c4.012,0,7.89,1.504,10.929,4.237l29.959,28.157h-32.356
	L227.182,193.004z M30,385.111V223.152h187.5c0.417,0.011,0.832,0.032,1.251,0.032c0.27,0,0.545-0.02,0.816-0.032h2.549
	c0.2,0,0.413,0.007,0.608,0.007l8.862,0.003l20.913-0.005v67.599h30v-67.605h30v107.605h30V223.158l20.913,0.005l8.862-0.003
	c0.494,0,0.999-0.001,1.513-0.007h1.646c0.271,0.012,0.541,0.032,0.815,0.032c0.419,0,0.834-0.021,1.251-0.032H455v161.959H30z"/>
</svg>