<svg width="40" height="24" viewBox="0 0 40 24" fill="none" xmlns="http://www.w3.org/2000/svg">
<path d="M14.0784 2.56591H25.5657V21.432H14.0784V2.56591Z" fill="#6C6BBD"/>
<path d="M15.5213 12.0007C15.5184 8.31976 17.1988 4.84194 20.0784 2.56929C15.1865 -1.29655 8.16139 -0.733458 3.94026 3.86284C-0.280869 8.45915 -0.280869 15.5455 3.94026 20.1418C8.16139 24.7381 15.1865 25.3012 20.0784 21.4353C17.1979 19.162 15.5174 15.6827 15.5213 12.0007Z" fill="#D32011"/>
<path d="M38.8715 12.0006C38.8714 16.5941 36.263 20.7844 32.154 22.7917C28.0451 24.799 23.157 24.271 19.5658 21.432C22.4441 19.1574 24.1247 15.6801 24.1247 11.999C24.1247 8.31788 22.4441 4.84053 19.5658 2.56595C23.157 -0.273088 28.0451 -0.801058 32.154 1.20627C36.263 3.2136 38.8714 7.40381 38.8715 11.9973V12.0006Z" fill="#0099DF"/>
</svg>
