<svg width="41" height="24" viewBox="0 0 41 24" fill="none" xmlns="http://www.w3.org/2000/svg">
<path d="M14.9131 2.56595H26.464V21.432H14.9131V2.56595Z" fill="#FF5F00"/>
<path d="M16.1028 12.0006C16.0999 8.31975 17.7897 4.84194 20.6852 2.56928C15.7662 -1.29656 8.70222 -0.733465 4.45772 3.86284C0.213229 8.45914 0.213229 15.5455 4.45772 20.1418C8.70222 24.7381 15.7662 25.3012 20.6852 21.4353C17.7888 19.162 16.0989 15.6827 16.1028 12.0006Z" fill="#EB001B"/>
<path d="M40.0978 12.0006C40.0977 16.5942 37.4748 20.7844 33.3432 22.7917C29.2115 24.799 24.2963 24.2711 20.6852 21.432C23.5795 19.1574 25.2693 15.6801 25.2693 11.999C25.2693 8.31789 23.5795 4.84053 20.6852 2.56595C24.2963 -0.273088 29.2115 -0.801059 33.3432 1.20627C37.4748 3.2136 40.0977 7.40382 40.0978 11.9973V12.0006Z" fill="#F79E1B"/>
</svg>
